<svg width="17" height="17" viewBox="0 0 17 17" fill="none" xmlns="http://www.w3.org/2000/svg">
<path d="M15.7356 0.386108H1.02579C0.672032 0.386108 0.38623 0.67191 0.38623 1.02566V15.7354C0.38623 16.0892 0.672032 16.375 1.02579 16.375H15.7356C16.0893 16.375 16.3751 16.0892 16.3751 15.7354V1.02566C16.3751 0.67191 16.0893 0.386108 15.7356 0.386108ZM10.1095 5.16079H12.8755V5.83432H10.1095V5.16079ZM8.38067 10.7149C8.25129 10.9605 8.06655 11.1726 7.84104 11.3345C7.60521 11.4984 7.34339 11.6183 7.06558 11.6882C6.77493 11.7661 6.4751 11.8045 6.1742 11.8022H2.86451V4.98491H6.08227C6.40804 4.98491 6.70384 5.01489 6.97365 5.07085C7.24146 5.12681 7.4693 5.22274 7.66117 5.35265C7.85104 5.48256 8.00093 5.65644 8.10686 5.87229C8.21079 6.08614 8.26475 6.35396 8.26475 6.67174C8.26475 7.0155 8.1868 7.2993 8.03091 7.52914C7.87302 7.75898 7.64518 7.94485 7.3354 8.09075C7.7571 8.21067 8.06689 8.42452 8.27075 8.72431C8.4786 9.0281 8.58053 9.39184 8.58053 9.81955C8.58053 10.1673 8.51458 10.4651 8.38067 10.7149ZM13.9528 9.65966H10.3873C10.3873 10.0474 10.5212 10.4191 10.723 10.619C10.9269 10.8169 11.2187 10.9168 11.6004 10.9168C11.8762 10.9168 12.1101 10.8468 12.3099 10.7089C12.5078 10.571 12.6277 10.4251 12.6717 10.2732H13.8669C13.675 10.8668 13.3832 11.2905 12.9875 11.5463C12.5957 11.8022 12.1161 11.9301 11.5585 11.9301C11.1687 11.9301 10.819 11.8661 10.5052 11.7442C10.2034 11.6263 9.93159 11.4464 9.70775 11.2146C9.48704 10.9765 9.31644 10.6965 9.20609 10.3911C9.08418 10.0534 9.02422 9.69763 9.02822 9.33988C9.02822 8.97014 9.09018 8.62638 9.21009 8.3066C9.43993 7.68503 9.9176 7.18738 10.5272 6.92956C10.8529 6.79365 11.2027 6.7257 11.5565 6.7297C11.9762 6.7297 12.3399 6.80964 12.6557 6.97353C12.9597 7.13002 13.2236 7.35431 13.4272 7.62907C13.629 7.90288 13.7709 8.21466 13.8609 8.56642C13.9468 8.91218 13.9768 9.27592 13.9528 9.65966V9.65966ZM11.5145 7.74899C11.2986 7.74899 11.1168 7.78696 10.9769 7.86091C10.837 7.93486 10.721 8.02679 10.6331 8.13272C10.5494 8.23499 10.4875 8.35335 10.4512 8.48048C10.4193 8.5864 10.3973 8.69433 10.3893 8.80425H12.5977C12.5658 8.45849 12.4458 8.20267 12.286 8.0228C12.1181 7.84492 11.8483 7.74899 11.5145 7.74899V7.74899ZM6.54794 7.54713C6.72182 7.42121 6.80576 7.21336 6.80576 6.92756C6.81176 6.79165 6.78378 6.65775 6.72382 6.53583C6.66986 6.4379 6.58991 6.35596 6.49198 6.298C6.39044 6.23642 6.27766 6.19565 6.16021 6.17808C6.0323 6.1541 5.90239 6.1421 5.77448 6.1441H4.36946V7.73699H5.8904C6.15222 7.73899 6.37406 7.67504 6.54794 7.54713V7.54713ZM6.78378 8.98613C6.58792 8.83623 6.3261 8.76228 6.00032 8.76228H4.36546V10.641H5.96835C6.11824 10.641 6.25615 10.627 6.39005 10.599C6.52396 10.571 6.64388 10.5231 6.74581 10.4551C6.84774 10.3891 6.92968 10.2992 6.99164 10.1833C7.05159 10.0674 7.08157 9.91948 7.08157 9.7416C7.08157 9.38785 6.98164 9.13802 6.78378 8.98613V8.98613Z" fill="black"/>
</svg>
