<svg width="49" height="27" viewBox="0 0 49 27" fill="none" xmlns="http://www.w3.org/2000/svg">
<path d="M13.4518 26.195C10.9558 26.195 8.69981 25.643 6.68381 24.539C4.69181 23.435 3.11981 21.911 1.96781 19.967C0.839809 17.999 0.275809 15.803 0.275809 13.379C0.275809 10.955 0.839809 8.771 1.96781 6.827C3.11981 4.859 4.70381 3.323 6.71981 2.219C8.73581 1.115 10.9918 0.563003 13.4878 0.563003C15.3598 0.563003 17.0878 0.875003 18.6718 1.499C20.2558 2.123 21.5998 3.035 22.7038 4.235L21.0118 5.927C19.0438 3.935 16.5598 2.939 13.5598 2.939C11.5678 2.939 9.75581 3.395 8.12381 4.307C6.49181 5.219 5.20781 6.467 4.27181 8.051C3.35981 9.635 2.90381 11.411 2.90381 13.379C2.90381 15.347 3.35981 17.123 4.27181 18.707C5.20781 20.291 6.49181 21.539 8.12381 22.451C9.75581 23.363 11.5678 23.819 13.5598 23.819C16.5838 23.819 19.0678 22.811 21.0118 20.795L22.7038 22.487C21.5998 23.687 20.2438 24.611 18.6358 25.259C17.0518 25.883 15.3238 26.195 13.4518 26.195ZM45.5908 25.979L39.8308 17.879C39.1828 17.951 38.5108 17.987 37.8148 17.987H31.0468V25.979H28.3828V0.779002H37.8148C41.0308 0.779002 43.5508 1.547 45.3748 3.083C47.1988 4.619 48.1108 6.731 48.1108 9.419C48.1108 11.387 47.6068 13.055 46.5988 14.423C45.6148 15.767 44.1988 16.739 42.3508 17.339L48.5068 25.979H45.5908ZM37.7428 15.719C40.2388 15.719 42.1468 15.167 43.4668 14.063C44.7868 12.959 45.4468 11.411 45.4468 9.419C45.4468 7.379 44.7868 5.819 43.4668 4.739C42.1468 3.635 40.2388 3.083 37.7428 3.083H31.0468V15.719H37.7428Z" fill="black"/>
</svg>
