<svg width="16" height="16" viewBox="0 0 16 16" fill="none" xmlns="http://www.w3.org/2000/svg">
<path fill-rule="evenodd" clip-rule="evenodd" d="M16 16H0V0H16V16ZM12.7003 6.78169V5.54075C12.4959 5.44975 11.3256 5.11497 10.401 5.46778C9.06913 5.97597 9.11697 7.50691 9.62237 8.10775C10.2772 8.88625 11.9062 9.1765 11.6396 9.94063C11.5016 10.3363 10.8572 10.4052 10.2891 10.2723C9.76 10.1487 9.3 9.83528 9.3 9.83528V11.1492C9.3 11.1492 9.75469 11.4027 10.3127 11.463C11.0282 11.5403 11.9249 11.3943 12.3742 10.995C13.1738 10.2842 13.2967 8.7095 11.7812 7.97828C10.5201 7.36984 10.5408 7.19619 10.5497 6.88409C10.5616 6.46609 11.4392 6.20878 12.7003 6.78169V6.78169ZM5.89969 3.29922C6.94897 3.33572 8.491 3.81931 8.491 5.88141C8.491 7.9435 6.60431 8.62016 4.88278 8.47272V11.3925H3.60031V3.32656C3.60031 3.32656 4.85034 3.26272 5.89966 3.29922H5.89969ZM6.23272 7.19531C6.78572 6.99353 7.14516 6.55975 7.14516 5.88594C7.14516 5.17153 6.77937 4.68775 6.21994 4.55109C5.61412 4.40306 4.88278 4.49031 4.88278 4.49031V7.30419C4.88278 7.30419 5.89513 7.3185 6.23272 7.19531V7.19531Z" fill="black"/>
</svg>
